<svg width="22" height="20" viewBox="0 0 22 20" fill="none" xmlns="http://www.w3.org/2000/svg">
<path fill-rule="evenodd" clip-rule="evenodd" d="M20 3.89998H12.41L15.35 0.959976C15.55 0.759976 15.55 0.449976 15.35 0.249976C15.15 0.0499756 14.84 0.0499756 14.64 0.249976L11 3.88998L7.36 0.249976C7.16 0.0499756 6.85 0.0499756 6.65 0.249976C6.45 0.449976 6.45 0.759976 6.65 0.959976L9.59 3.89998H2C0.9 3.89998 0 4.78998 0 5.89998V17.9C0 19 0.9 19.9 2 19.9H20C21.1 19.9 22 19 22 17.9V5.89998C22 4.78998 21.1 3.89998 20 3.89998ZM9.5 15.05L13.48 12.77C14.15 12.39 14.15 11.42 13.48 11.03L9.5 8.74998C8.83 8.36998 8 8.85997 8 9.61998V14.17C8 14.94 8.83 15.43 9.5 15.05ZM3 17.9H19C19.55 17.9 20 17.45 20 16.9V6.89998C20 6.34998 19.55 5.89998 19 5.89998H3C2.45 5.89998 2 6.34998 2 6.89998V16.9C2 17.45 2.45 17.9 3 17.9Z" fill="#1B1B1B" fill-opacity="0.6"/>
</svg>
